<svg xmlns="http://www.w3.org/2000/svg" viewBox="0 0 248.57 248.57" width="512" height="512"><g fill="#b4bbc3"><path d="M241.07 42.767h-26.709V17.745a7.5 7.5 0 0 0-7.5-7.5H7.5a7.5 7.5 0 0 0-7.5 7.5V213.72c0 13.567 11.038 24.605 24.605 24.605h199.359c13.567 0 24.605-11.038 24.605-24.605V50.267a7.499 7.499 0 0 0-7.499-7.5zM15 25.245h184.361V213.72c0 3.406.696 6.653 1.953 9.605H24.605c-5.296 0-9.605-4.309-9.605-9.605V25.245zm208.965 198.08c-5.295 0-9.604-4.309-9.604-9.605V57.767h19.209V213.72c0 5.296-4.309 9.605-9.605 9.605z"/><path d="M32.422 107.085h149.52a7.5 7.5 0 0 0 7.5-7.5V49.461a7.5 7.5 0 0 0-7.5-7.5H32.422a7.5 7.5 0 0 0-7.5 7.5v50.124a7.5 7.5 0 0 0 7.5 7.5zm7.5-50.124h134.52v35.124H39.922V56.961zM32.422 205.672H97.73a7.5 7.5 0 0 0 7.5-7.5v-65.313a7.5 7.5 0 0 0-7.5-7.5H32.422a7.5 7.5 0 0 0-7.5 7.5v65.313a7.5 7.5 0 0 0 7.5 7.5zm7.5-65.314H90.23v50.313H39.922v-50.313zM181.941 125.358h-63.16a7.5 7.5 0 0 0 0 15h63.16a7.5 7.5 0 0 0 0-15zM181.941 190.672h-63.16a7.5 7.5 0 0 0 0 15h63.16a7.5 7.5 0 0 0 0-15zM181.941 158.011h-63.16a7.5 7.5 0 0 0 0 15h63.16a7.5 7.5 0 0 0 0-15z"/></g></svg>