<svg xmlns="http://www.w3.org/2000/svg" viewBox="0 0 56 56" width="512" height="512"><g fill="#0073bf"><path d="M25.293 39.293a.999.999 0 1 0 1.414 1.414l11.999-11.999a1.001 1.001 0 0 0 0-1.417L26.707 15.293a.999.999 0 1 0-1.414 1.414L35.586 27H5a1 1 0 1 0 0 2h30.586L25.293 39.293z"/><path d="M51 0H14a1 1 0 0 0-1 1v22h12.93l-3.465-3.465C21.521 18.592 21 17.336 21 16s.521-2.592 1.465-3.535C23.408 11.521 24.664 11 26 11s2.592.521 3.536 1.465l11.996 11.997c.228.227.438.484.626.765.065.097.118.196.169.298l.094.173c.071.126.14.253.196.389s.098.274.136.413l.054.179c.037.112.071.226.095.345a4.986 4.986 0 0 1 0 1.955 2.831 2.831 0 0 1-.095.345l-.054.179a3.346 3.346 0 0 1-.135.411 4 4 0 0 1-.204.403l-.087.16a2.723 2.723 0 0 1-.168.297 5.031 5.031 0 0 1-.629.768L29.535 43.535C28.592 44.479 27.336 45 26 45s-2.592-.521-3.536-1.465C21.521 42.592 21 41.336 21 40s.521-2.592 1.465-3.535L25.93 33H13v22a1 1 0 0 0 1 1h37a1 1 0 0 0 1-1V1a1 1 0 0 0-1-1z"/></g></svg>