<svg xmlns="http://www.w3.org/2000/svg" viewBox="0 0 297 297" width="512" height="512"><g fill="#b4bbc3"><path d="M148.417 202.749c29.914 0 54.251-24.337 54.251-54.251s-24.337-54.251-54.251-54.251-54.251 24.337-54.251 54.251 24.337 54.251 54.251 54.251zm0-77.834c13.004 0 23.583 10.579 23.583 23.583 0 13.004-10.579 23.583-23.583 23.583-13.004 0-23.583-10.579-23.583-23.583 0-13.004 10.579-23.583 23.583-23.583z"/><path d="M296.109 144.955c-.457-.852-11.467-21.108-35.149-41.427-21.848-18.743-59.092-41.087-112.459-41.087s-90.612 22.344-112.46 41.087C12.358 123.846 1.348 144.102.891 144.955a7.498 7.498 0 0 0-.006 7.079c.455.853 11.426 21.113 35.091 41.436 21.828 18.744 59.069 41.089 112.525 41.089s90.696-22.345 112.524-41.09c23.665-20.321 34.635-40.583 35.09-41.436a7.496 7.496 0 0 0-.006-7.078zM148.417 79.247c38.185 0 69.251 31.065 69.251 69.251s-31.066 69.251-69.251 69.251c-38.186 0-69.251-31.066-69.251-69.251s31.065-69.251 69.251-69.251z"/></g></svg>