<?xml version="1.0" encoding="iso-8859-1"?>
<!-- Generator: Adobe Illustrator 19.0.0, SVG Export Plug-In . SVG Version: 6.00 Build 0)  -->
<svg xmlns="http://www.w3.org/2000/svg" xmlns:xlink="http://www.w3.org/1999/xlink" version="1.1" id="Layer_1" x="0px" y="0px" viewBox="0 0 512 512" style="enable-background:new 0 0 512 512;" xml:space="preserve" width="512px" height="512px">
<g>
	<g>
		<path d="M256,0C191.084,0,131.944,25.584,86.882,65.671L277.211,256H361v60h-23.789l109.118,109.118    C486.416,380.056,512,320.916,512,256C512,115.39,396.61,0,256,0z M363.432,164.931c-21.138,4.263-42.803-2.256-58.096-17.476    c-15.586-15.498-22.339-37.69-18.062-59.355c1.626-8.145,9.492-13.389,17.622-11.821c8.13,1.611,13.418,9.507,11.821,17.622    c-2.373,11.982,1.187,23.745,9.771,32.285c8.32,8.262,19.644,11.616,30.967,9.36c0.015-0.015,0.044-0.015,0.059-0.015    c21.035-4.233,42.759,2.3,58.066,17.534c15.571,15.498,22.324,37.676,18.047,59.326c-1.421,7.148-7.69,12.1-14.707,12.1    c-9.536,0-16.545-8.703-14.736-17.9c2.373-11.968-1.187-23.73-9.771-32.271C386.107,166.044,374.799,162.675,363.432,164.931z     M436,316h-45v-60h45c8.284,0,15,6.714,15,15v30C451,309.284,444.284,316,436,316z" fill="#535b66"/>
	</g>
</g>
<g>
	<g>
		<path d="M294.789,316H211v-60h23.789L65.671,86.882C25.584,131.944,0,191.084,0,256c0,140.61,115.39,256,256,256    c64.916,0,124.056-25.584,169.118-65.671L294.789,316z M181,316H76c-8.284,0-15-6.716-15-15v-30c0-8.286,6.716-15,15-15h105V316z" fill="#535b66"/>
	</g>
</g>
<g>
</g>
<g>
</g>
<g>
</g>
<g>
</g>
<g>
</g>
<g>
</g>
<g>
</g>
<g>
</g>
<g>
</g>
<g>
</g>
<g>
</g>
<g>
</g>
<g>
</g>
<g>
</g>
<g>
</g>
</svg>
