<svg xmlns="http://www.w3.org/2000/svg" viewBox="1388 -26 627 604"><path fill="#F4F6F9" stroke="#00BC75" stroke-width="50" stroke-miterlimit="10" d="M1960.4 190.2l-155.6-14.8c-9.8-.9-18.3-7.1-22.2-16.4l-55.9-135c-9-22.2-40.6-22.2-49.5 0L1622 159.1c-3.6 9.4-12.4 15.6-22.2 16.4l-155.5 14.7c-23.1 2.3-32.6 31.2-15.2 46.8l117.2 103c7.6 6.7 10.7 16.4 8.5 26.3l-35.2 144.4c-5.3 22.7 19.2 41.4 39.7 29.3l129.5-76.4c8.5-4.8 18.7-4.8 27.3 0l129.8 76.3c20.6 12.1 45.1-6.2 39.7-29.3l-34.9-144.4c-2.3-9.8.9-19.7 8.5-26.3L1976.5 237c16.9-15.6 7.1-44.5-16.1-46.8z"/></svg>