<?xml version="1.0" encoding="utf-8"?>
<!-- Generator: Adobe Illustrator 17.1.0, SVG Export Plug-In . SVG Version: 6.00 Build 0)  -->
<!DOCTYPE svg PUBLIC "-//W3C//DTD SVG 1.1//EN" "http://www.w3.org/Graphics/SVG/1.1/DTD/svg11.dtd">
<svg version="1.1" id="Capa_1" xmlns="http://www.w3.org/2000/svg" xmlns:xlink="http://www.w3.org/1999/xlink" x="0px" y="0px"
	 viewBox="1391 -26 630 602" enable-background="new 1391 -26 630 602" xml:space="preserve">
<g>
	<path fill="#FFFFFF" stroke="#7D8FA9" stroke-width="30" stroke-miterlimit="10" d="M1960.4,190.2l-155.6-14.8
		c-9.8-0.9-18.3-7.1-22.2-16.4L1726.7,24c-9-22.2-40.6-22.2-49.5,0L1622,159.1c-3.6,9.4-12.4,15.6-22.2,16.4l-155.5,14.7
		c-23.1,2.3-32.6,31.2-15.2,46.8l117.2,103c7.6,6.7,10.7,16.4,8.5,26.3l-35.2,144.4c-5.3,22.7,19.2,41.4,39.7,29.3l129.5-76.4
		c8.5-4.8,18.7-4.8,27.3,0l129.8,76.3c20.6,12.1,45.1-6.2,39.7-29.3l-34.9-144.4c-2.3-9.8,0.9-19.7,8.5-26.3l117.3-102.9
		C1993.4,221.4,1983.6,192.5,1960.4,190.2z"/>
</g>
</svg>
