<?xml version="1.0" encoding="utf-8"?>
<!-- Generator: Adobe Illustrator 17.1.0, SVG Export Plug-In . SVG Version: 6.00 Build 0)  -->
<!DOCTYPE svg PUBLIC "-//W3C//DTD SVG 1.1//EN" "http://www.w3.org/Graphics/SVG/1.1/DTD/svg11.dtd">
<svg version="1.1" id="Capa_1" xmlns="http://www.w3.org/2000/svg" xmlns:xlink="http://www.w3.org/1999/xlink" x="0px" y="0px"
	 viewBox="702 -4.1 595.9 566.8" enable-background="new 702 -4.1 595.9 566.8" xml:space="preserve">
<g>
	<path fill="#FFFFFF" stroke="#7D8FA9" stroke-width="20" stroke-miterlimit="10" d="M1261.5,192.6L1104,177.6
		c-9.9-0.9-18.5-7.2-22.5-16.6L1025,24.3c-9.1-22.5-41.1-22.5-50.1,0L919,161.1c-3.6,9.5-12.6,15.8-22.5,16.6l-157.4,14.9
		c-23.4,2.3-33,31.6-15.4,47.4l118.6,104.3c7.7,6.8,10.8,16.6,8.6,26.6l-35.6,146.2c-5.4,23,19.4,41.9,40.2,29.7l131.1-77.3
		c8.6-4.9,18.9-4.9,27.6,0l131.4,77.2c20.8,12.2,45.6-6.3,40.2-29.7l-35.3-146.2c-2.3-9.9,0.9-19.9,8.6-26.6L1277.8,240
		C1294.9,224.1,1285,194.9,1261.5,192.6z"/>
</g>
</svg>
